Coordinates
version=1
nRows=11
nColumns=36
inDegrees=yes

Units are S.I. units (second, meters, Newtons, ...)
If the header above contains a line with 'inDegrees', this indicates whether rotational values are in degrees (yes) or radians (no).

endheader
time	pelvis_tilt	pelvis_list	pelvis_rotation	pelvis_tx	pelvis_ty	pelvis_tz	hip_flexion_r	hip_adduction_r	hip_rotation_r	knee_angle_r	knee_angle_r_beta	ankle_angle_r	subtalar_angle_r	mtp_angle_r	hip_flexion_l	hip_adduction_l	hip_rotation_l	knee_angle_l	knee_angle_l_beta	ankle_angle_l	subtalar_angle_l	mtp_angle_l	lumbar_extension	lumbar_bending	lumbar_rotation	arm_flex_r	arm_add_r	arm_rot_r	elbow_flex_r	pro_sup_r	arm_flex_l	arm_add_l	arm_rot_l	elbow_flex_l	pro_sup_l
      0.00000000	      2.94928460	      4.48771310	      9.55672275	     -0.28117791	      0.88244236	     -0.25964900	     24.79401293	     -7.58221050	     -5.59503420	      4.88802043	      0.08531205	      7.05710288	     -9.36063207	     -5.98788428	    -19.59175743	      3.74328570	     -2.95621364	     11.55898706	      0.20174238	     15.45995387	     15.99755730	     -5.98788428	    -12.08775044	     -3.33162656	    -11.50215791	     -0.68640674	     -4.40645704	    -10.40503028	     15.63141549	     81.48112105	     17.64717686	    -11.09712677	     -0.47665899	     47.11713660	     96.53962072
      0.01000000	      3.05741480	      4.41634452	     10.02800907	     -0.26574507	      0.88053762	     -0.25864294	     24.60994141	     -7.45143762	     -4.72214295	      4.41655227	      0.07708338	      7.88511113	     -8.36134531	     -6.01554671	    -20.21335676	      3.09965827	     -2.84503641	     12.47451276	      0.21772132	     15.15531273	     16.00458147	     -6.01554671	    -12.24637546	     -3.23536837	    -11.98828900	     -0.77849206	     -4.40916199	    -10.47275770	     15.24230851	     81.54448243	     17.92226862	    -11.28185629	     -0.29279214	     47.37981720	     96.76217101
      0.02000000	      3.17456021	      4.34371677	     10.54323318	     -0.25015202	      0.87869077	     -0.25767841	     24.42715947	     -7.34783934	     -4.01958175	      4.20752959	      0.07343524	      8.67761668	     -7.42288840	     -6.03521488	    -20.79429928	      2.41822773	     -2.75132143	     13.46105367	      0.23493971	     14.76617096	     16.07041008	     -6.03521488	    -12.39761882	     -3.13597112	    -12.46005693	     -0.91756618	     -4.37455173	    -10.53140578	     14.86512733	     81.57893896	     18.20786904	    -11.40486280	     -0.08938253	     47.58580434	     96.92325651
      0.03000000	      3.35834277	      4.17909598	     10.98571025	     -0.23418017	      0.87693554	     -0.25664256	     24.26503516	     -7.11133987	     -3.57393368	      4.54905269	      0.07939595	      9.51772040	     -6.33927255	     -6.06116953	    -21.41445269	      1.62209894	     -2.80594906	     14.48126243	      0.25274571	     14.23752473	     16.20953039	     -6.06116953	    -12.54723986	     -2.90811916	    -12.87553113	     -1.01543197	     -4.37171862	    -10.58696471	     14.48585466	     81.62027173	     18.37658050	    -11.55174434	      0.18101537	     47.76601446	     97.12161814
      0.04000000	      3.52147743	      3.97309402	     11.37864790	     -0.21780671	      0.87527090	     -0.25553185	     24.11558046	     -6.77715969	     -3.01940058	      5.29787492	      0.09246536	      9.64272672	     -6.02196722	     -6.06948476	    -22.03187118	      0.82975122	     -2.56121574	     15.44108395	      0.26949776	     13.67730581	     16.27237713	     -6.06948476	    -12.61556736	     -2.63684078	    -13.18943693	     -1.20609990	     -4.38724553	    -10.61580922	     14.32524220	     81.62139179	     18.45519147	    -11.58062090	      0.27416126	     47.81053676	     97.18336233
      0.05000000	      3.71002890	      3.74486611	     11.76685752	     -0.20097283	      0.87373312	     -0.25440270	     23.97179328	     -6.39775066	     -2.93394742	      6.54040947	      0.11415168	      9.79615563	     -5.84456323	     -6.08963109	    -22.45751241	     -0.06479484	     -2.88084925	     16.79097461	      0.29305779	     12.65066986	     16.17188277	     -6.08963109	    -12.63915298	     -2.33023254	    -13.51575394	     -1.36815651	     -4.38241888	    -10.68164698	     14.09218639	     81.61542643	     18.36447627	    -11.65793564	      0.49643154	     47.86754590	     97.33027537
      0.06000000	      3.88047658	      3.48977296	     12.08525984	     -0.18373910	      0.87227870	     -0.25315678	     23.80918790	     -5.93046963	     -2.85900658	      8.00125369	      0.13964822	      9.29481015	     -6.04892976	     -6.10465639	    -22.82507004	     -0.93215418	     -2.98589085	     18.19900752	      0.31763260	     11.53955927	     15.97618865	     -6.10465639	    -12.58206061	     -1.99852571	    -13.73992848	     -1.56953528	     -4.40266031	    -10.72978535	     13.97436880	     81.59973727	     18.17703267	    -11.68319449	      0.61207157	     47.82609063	     97.42905183
      0.07000000	      3.94522980	      3.18944091	     12.34441096	     -0.16618759	      0.87079141	     -0.25181204	     23.75085472	     -5.39279090	     -2.93371797	      9.58748525	      0.16733318	      8.13261879	     -6.71354957	     -6.12195303	    -22.93166444	     -1.79694059	     -3.17896415	     19.83249674	      0.34614237	     10.06489235	     15.50453248	     -6.12195303	    -12.34764559	     -1.64103363	    -13.89119618	     -1.80981864	     -4.42300611	    -10.78499081	     13.89564098	     81.57299366	     17.83993640	    -11.68295555	      0.69653360	     47.71972754	     97.53801839
      0.08000000	      3.78694766	      2.88129612	     12.45023276	     -0.14852459	      0.86920972	     -0.25017967	     23.79140786	     -4.68191950	     -2.00975868	     10.87798538	      0.18985666	      5.16302840	     -9.96064237	     -6.19629113	    -22.69974860	     -2.45204091	     -2.96981402	     21.61031361	      0.37717112	      8.10719882	     13.97591126	     -6.19629113	    -11.81829336	     -1.35470005	    -13.89688386	     -2.04903700	     -4.43708881	    -10.92686982	     13.87688469	     81.47420616	     17.36242771	    -11.65929254	      0.64894346	     47.47702392	     97.99494383
      0.09000000	      3.83593682	      2.51957271	     12.59387637	     -0.13072189	      0.86804504	     -0.24869302	     23.72081222	     -4.03462172	     -2.39789637	     12.48101720	      0.21783484	      3.41979133	    -10.74740647	     -6.21477530	    -22.44543573	     -3.32180624	     -3.33660348	     23.73099334	      0.41418397	      6.02289283	     13.12815535	     -6.21477530	    -11.51861169	     -0.92725090	    -13.86131032	     -2.26370158	     -4.49374088	    -10.93990159	     13.86478879	     81.45441839	     16.87491879	    -11.55574295	      0.62315838	     47.24059156	     98.08898219
      0.10000000	      3.62225545	      2.19589918	     12.52830355	     -0.11312708	      0.86683699	     -0.24686808	     23.86795899	     -3.23334745	     -1.50752275	     13.87388641	      0.24214500	      0.10131462	    -14.30333972	     -6.28238542	    -21.78711887	     -3.81983711	     -3.10529388	     25.99695737	      0.45373250	      3.09437595	     10.52805824	     -6.28238542	    -10.95065818	     -0.63105674	    -13.68510919	     -2.42135529	     -4.53410742	    -10.89923274	     13.83664260	     81.41432963	     16.30893608	    -11.42282661	      0.35814977	     46.85399617	     98.48358347
